<svg xmlns="http://www.w3.org/2000/svg" viewBox="0 0 100 100" width="512" height="512"><defs><linearGradient id="ring" x1="0" y1="0" x2="1" y2="1"><stop offset="0" stop-color="#2dd4bf"/><stop offset="1" stop-color="#0d9488"/></linearGradient></defs><circle cx="50" cy="50" r="43" fill="none" stroke="url(#ring)" stroke-width="9"/><circle cx="50" cy="50" r="35.5" fill="#15181f"/><path d="M99 669V-82H173V595H462C457 463 420 298 199 179C217 166 242 138 253 122C388 201 460 296 498 392C590 307 691 203 742 135L804 184C742 259 620 376 521 464C531 509 536 553 538 595H829V20C829 2 824 -4 804 -5C784 -5 716 -6 645 -3C656 -24 668 -58 671 -79C761 -79 823 -79 858 -67C892 -54 903 -30 903 19V669H539V840H463V669Z" transform="matrix(0.05640 0 0 -0.05640 21.744 70.375)" fill="#fff" stroke="#fff" stroke-width="56.7" stroke-linejoin="round" stroke-linecap="round"/></svg>